<svg width="684" height="448" viewBox="0 0 684 448" fill="none" xmlns="http://www.w3.org/2000/svg">
<path fill-rule="evenodd" clip-rule="evenodd" d="M315.516 0.920195C388.183 -4.02739 460.689 11.6322 524.04 32.1588C587.348 52.6713 651.278 79.2651 676.144 117.768C700.272 155.129 661.789 194.773 654.583 234.294C648.181 269.407 679.23 312.149 636.016 337.855C590.623 364.857 501.419 340.359 444.459 359.287C386.338 378.6 379.708 432.507 315.516 444.355C252.613 455.966 181.966 437.838 125.919 418.083C70.8101 398.658 22.9487 369.733 4.59193 334.761C-12.7296 301.761 24.1543 268.561 29.449 234.294C34.1969 203.567 16.6874 172.633 34.1628 143.383C53.6799 110.715 88.7231 81.8 134.363 58.6905C186.793 32.1425 245.33 5.69895 315.516 0.920195Z" fill="#F09541" fill-opacity="0.73"/>
</svg>
