<svg width="349" height="374" viewBox="0 0 349 374" fill="none" xmlns="http://www.w3.org/2000/svg">
<path fill-rule="evenodd" clip-rule="evenodd" d="M195.122 0.768198C240.06 -3.36215 284.9 9.71084 324.077 26.8468C363.228 43.9711 402.764 66.1722 418.142 98.3151C433.063 129.505 409.264 162.601 404.808 195.594C400.849 224.907 420.05 260.589 393.326 282.048C365.253 304.59 310.088 284.139 274.863 299.94C238.92 316.063 234.819 361.066 195.122 370.957C156.221 380.65 112.531 365.517 77.8712 349.025C43.7905 332.809 14.1919 308.661 2.83975 279.466C-7.87227 251.917 14.9375 224.2 18.2119 195.594C21.1481 169.942 10.3199 144.118 21.127 119.699C33.1968 92.4276 54.8682 68.2884 83.0927 48.9961C115.517 26.8332 151.717 4.7576 195.122 0.768198Z" fill="#F09541"/>
</svg>
