<svg width="309" height="427" viewBox="0 0 309 427" fill="none" xmlns="http://www.w3.org/2000/svg">
<path fill-rule="evenodd" clip-rule="evenodd" d="M-64.2234 226.651C-67.5688 181.647 -53.7152 137.043 -35.8981 98.1701C-18.0932 59.3239 4.79454 20.1817 37.2009 5.36743C68.6465 -9.00761 101.322 15.3652 134.232 20.3967C163.471 24.8668 199.483 6.29128 220.473 33.3863C242.522 61.8475 221.111 116.647 236.295 152.143C251.788 188.362 296.712 193.247 305.909 233.111C314.922 272.175 299.028 315.594 281.934 349.962C265.125 383.754 240.465 412.927 211.076 423.768C183.344 433.997 156.03 410.707 127.485 406.934C101.889 403.551 75.8793 413.926 51.6529 402.695C24.5961 390.151 0.838777 368.061 -17.958 339.505C-39.5516 306.699 -60.9921 270.119 -64.2234 226.651Z" fill="#F09541"/>
</svg>
